<?xml version="1.0" encoding="UTF-8" standalone="no"?>
<svg
   width="10.636574"
   height="18.000311"
   viewBox="0 0 10.636574 18.000311"
   fill="none"
   version="1.1"
   id="svg221"
   sodipodi:docname="facebook-icon-grey.svg"
   xmlns:inkscape="http://www.inkscape.org/namespaces/inkscape"
   xmlns:sodipodi="http://sodipodi.sourceforge.net/DTD/sodipodi-0.dtd"
   xmlns="http://www.w3.org/2000/svg"
   xmlns:svg="http://www.w3.org/2000/svg">
  <defs
     id="defs225" />
  <sodipodi:namedview
     id="namedview223"
     pagecolor="#ffffff"
     bordercolor="#999999"
     borderopacity="1"
     inkscape:showpageshadow="0"
     inkscape:pageopacity="0"
     inkscape:pagecheckerboard="0"
     inkscape:deskcolor="#d1d1d1"
     showgrid="false" />
  <path
     fill-rule="evenodd"
     clip-rule="evenodd"
     d="M 3.89244,1.43787 C 4.81314,0.51722 6.06174,0 7.36374,0 h 2.4546 c 0.4519,0 0.8182,0.36632 0.8182,0.8182 v 3.27278 c 0,0.45188 -0.3663,0.8182 -0.8182,0.8182 h -2.4546 v 1.63639 h 2.4546 c 0.252,0 0.4899,0.11607 0.6449,0.31466 0.1551,0.19858 0.21,0.45758 0.1489,0.70198 l -0.8182,3.2728 c -0.0911,0.3642 -0.4183,0.6197 -0.7938,0.6197 h -1.6364 v 5.7274 c 0,0.4519 -0.3663,0.8182 -0.8182,0.8182 h -3.2728 c -0.4518,0 -0.81815,-0.3663 -0.81815,-0.8182 v -5.7274 H 0.8182 C 0.36632,11.45471 0,11.08841 0,10.63651 V 7.36381 C 0,6.91188 0.36632,6.54557 0.8182,6.54557 H 2.45459 V 4.90918 c 0,-1.302 0.51725,-2.55066 1.43785,-3.47131 z m 3.4713,0.19853 c -0.868,0 -1.7004,0.34481 -2.3142,0.95857 -0.6138,0.61377 -0.9586,1.44621 -0.9586,2.31421 v 2.45463 c 0,0.4518 -0.3663,0.8181 -0.8182,0.8181 H 1.63639 v 1.6364 h 1.63635 c 0.4519,0 0.8182,0.3664 0.8182,0.8182 v 5.7274 h 1.6364 v -5.7274 c 0,-0.4518 0.3663,-0.8182 0.8182,-0.8182 h 1.8158 l 0.4091,-1.6364 h -2.2249 c -0.4519,0 -0.8182,-0.3663 -0.8182,-0.8181 V 4.90918 c 0,-0.434 0.1724,-0.85022 0.4793,-1.15711 0.3069,-0.30688 0.7231,-0.47928 1.1571,-0.47928 h 1.6364 V 1.6364 Z"
     fill="white"
     id="path219"
     style="fill:#808080" />
</svg>
