<?xml version="1.0" encoding="UTF-8" standalone="no"?>
<svg
   width="19.79999"
   height="19.80002"
   viewBox="0 0 19.79999 19.80002"
   fill="none"
   version="1.1"
   id="svg52"
   sodipodi:docname="Instagram.svg"
   xmlns:inkscape="http://www.inkscape.org/namespaces/inkscape"
   xmlns:sodipodi="http://sodipodi.sourceforge.net/DTD/sodipodi-0.dtd"
   xmlns="http://www.w3.org/2000/svg"
   xmlns:svg="http://www.w3.org/2000/svg">
  <defs
     id="defs56" />
  <sodipodi:namedview
     id="namedview54"
     pagecolor="#ffffff"
     bordercolor="#999999"
     borderopacity="1"
     inkscape:showpageshadow="0"
     inkscape:pageopacity="0"
     inkscape:pagecheckerboard="0"
     inkscape:deskcolor="#d1d1d1"
     showgrid="false" />
  <path
     fill-rule="evenodd"
     clip-rule="evenodd"
     d="m 5.4000001,1.7999999 c -1.98823,0 -3.6,1.61177 -3.6,3.6 V 14.40002 c 0,1.9882 1.61177,3.6 3.6,3.6 H 14.39999 c 1.9882,0 3.6,-1.6118 3.6,-3.6 V 5.3999999 c 0,-1.98823 -1.6118,-3.6 -3.6,-3.6 z M 8.1787109e-8,5.3999999 C 8.1787109e-8,2.4176599 2.4176601,-1.158905e-7 5.4000001,-1.158905e-7 H 14.39999 c 2.9823,0 5.4,2.4176600158905 5.4,5.4000000158905 V 14.40002 c 0,2.9823 -2.4177,5.4 -5.4,5.4 H 5.4000001 c -2.98234,0 -5.400000018212891,-2.4177 -5.400000018212891,-5.4 z"
     fill="white"
     id="path46"
     style="fill:#808080" />
  <path
     fill-rule="evenodd"
     clip-rule="evenodd"
     d="m 10.33489,7.1903499 c -0.5616999,-0.0833 -1.1354999,0.01265 -1.6394999,0.27421 -0.5041,0.26156 -0.91291,0.67546 -1.16823,1.18266 -0.25533,0.5073 -0.3442,1.0822 -0.25398,1.6429001 0.09022,0.5607 0.35495,1.0786 0.75651,1.4802 0.4016,0.4016 0.9196,0.6663 1.4803,0.7565 0.5605999,0.0903 1.1354999,0.0014 1.6427999,-0.2539 0.5073,-0.2554 0.9211,-0.6641 1.1827,-1.1682 0.2615,-0.5041 0.3575,-1.0779 0.2742,-1.6396001 -0.085,-0.573 -0.352,-1.1035 -0.7616,-1.5132 -0.4096,-0.40958 -0.9401,-0.6766 -1.5132,-0.76157 z m -2.4685699,-1.32351 c 0.84017,-0.43594 1.79637,-0.59586 2.7326699,-0.45702 0.955,0.14162 1.8392,0.58665 2.5219,1.26934 0.6827,0.6827 1.1277,1.56686 1.2693,2.52186 0.1389,0.9363001 -0.0211,1.8925001 -0.457,2.7327001 -0.4359,0.8401 -1.1257,1.5214 -1.9711,1.947 -0.8455,0.4255 -1.8036,0.5736 -2.7380999,0.4233 -0.9345,-0.1504 -1.79779,-0.5916 -2.46708,-1.2609 -0.66929,-0.6693 -1.1105,-1.5326 -1.26087,-2.4671 -0.15037,-0.9345001 -0.00225,-1.8926001 0.42329,-2.7380301 0.42555,-0.84546 1.10684,-1.53521 1.94699,-1.97115 z"
     fill="white"
     id="path48"
     style="fill:#808080" />
  <path
     fill-rule="evenodd"
     clip-rule="evenodd"
     d="m 13.94999,4.9500399 c 0,-0.49705 0.4029,-0.9 0.9,-0.9 h 0.009 c 0.4971,0 0.9,0.40295 0.9,0.9 0,0.49706 -0.4029,0.9 -0.9,0.9 h -0.009 c -0.4971,0 -0.9,-0.40294 -0.9,-0.9 z"
     fill="white"
     id="path50"
     style="fill:#808080" />
</svg>
