<?xml version="1.0" encoding="UTF-8" standalone="no"?>
<!-- Generator: Adobe Illustrator 19.2.1, SVG Export Plug-In . SVG Version: 6.00 Build 0)  -->

<svg
   version="1.1"
   id="Layer_1"
   x="0px"
   y="0px"
   width="31.000061"
   height="34"
   viewBox="0 0 31.000061 34"
   enable-background="new 0 0 780 875"
   xml:space="preserve"
   sodipodi:docname="tree-icon.svg"
   inkscape:version="1.2.2 (b0a8486541, 2022-12-01)"
   xmlns:inkscape="http://www.inkscape.org/namespaces/inkscape"
   xmlns:sodipodi="http://sodipodi.sourceforge.net/DTD/sodipodi-0.dtd"
   xmlns="http://www.w3.org/2000/svg"
   xmlns:svg="http://www.w3.org/2000/svg"
   xmlns:rdf="http://www.w3.org/1999/02/22-rdf-syntax-ns#"
   xmlns:cc="http://creativecommons.org/ns#"
   xmlns:dc="http://purl.org/dc/elements/1.1/"><defs
   id="defs244" /><sodipodi:namedview
   id="namedview242"
   pagecolor="#ffffff"
   bordercolor="#999999"
   borderopacity="1"
   inkscape:showpageshadow="0"
   inkscape:pageopacity="0"
   inkscape:pagecheckerboard="0"
   inkscape:deskcolor="#d1d1d1"
   showgrid="false"
   inkscape:zoom="0.69485714"
   inkscape:cx="1475.1234"
   inkscape:cy="473.47862"
   inkscape:window-width="1600"
   inkscape:window-height="769"
   inkscape:window-x="0"
   inkscape:window-y="0"
   inkscape:window-maximized="1"
   inkscape:current-layer="Layer_1" />
<title
   id="title147">Artboard 1</title>
<desc
   id="desc149">Created with Sketch.</desc>







<path
   id="Icon_7_"
   d="m 27.768061,9.539 c -0.215,-3.317 -2.973,-5.965 -6.371,-6.068 -0.949,-1.711 -2.651,-2.982 -4.625,-3.35 -0.431,-0.081 -0.869,-0.121 -1.302,-0.121 -2.535,0 -4.777,1.365 -5.93,3.474 -3.362,0.138 -6.08,2.767 -6.299,6.056 -2.40699996,1.924 -3.62199996,4.968 -3.13499996,8.065 0.566,3.595 3.50899996,6.534 7.15399996,7.148 0.504,0.085 1.013,0.128 1.517,0.128 1.185,0 2.336,-0.232 3.426,-0.69 0.176,0.064 0.354,0.121 0.534,0.172 0.422,0.121 0.702,0.514 0.702,0.947 v 7.703 c 0,0.551 0.454,0.997 1.013,0.997 h 2.026 c 0.56,0 1.013,-0.446 1.013,-0.997 v -7.699 c 0,-0.432 0.278,-0.827 0.7,-0.947 0.194,-0.055 0.387,-0.117 0.578,-0.187 2.017,0.856 4.299,0.936 6.457,0.194 2.529,-0.869 4.541,-2.912 5.348,-5.427 1.132,-3.528 -0.056,-7.194 -2.806,-9.398 z m -1.063,8.21 c -0.509,1.545 -1.89,2.72 -3.508,3.037 -0.999,0.196 -1.99,0.09 -2.891,-0.309 -0.912,-0.402 -1.961,-0.434 -2.864,-0.079 -1.256,0.494 -2.697,0.47 -3.96,-0.005 -0.884,-0.333 -1.912,-0.298 -2.8,0.09 -0.909,0.4 -1.91,0.501 -2.915,0.296 -1.614,-0.33 -2.985,-1.513 -3.482,-3.06 -0.687,-2.14 0.193,-4.369 2.068,-5.476 l 0.568,-0.336 c 0.345,-0.203 0.535,-0.589 0.484,-0.982 l -0.103,-0.785 c -0.009,-0.062 -0.021,-0.124 -0.023,-0.183 0,-1.379 1.14,-2.5 2.54,-2.5 0.169,0 0.36,0.025 0.586,0.078 l 0.991,0.233 c 0.547,0.128 1.095,-0.206 1.222,-0.745 l 0.23,-0.978 c 0.325,-1.384 1.703,-2.28 3.169,-2.005 1.001,0.187 1.855,1.01 2.075,2.001 l 0.224,1.006 c 0.123,0.55 0.684,0.891 1.238,0.753 l 1.014,-0.252 c 0.249,-0.063 0.447,-0.091 0.622,-0.091 1.401,0 2.54,1.121 2.54,2.495 -10e-4,0.063 -0.013,0.123 -0.022,0.184 l -0.103,0.794 c -0.051,0.392 0.138,0.777 0.482,0.981 l 0.565,0.335 c 1.881,1.115 2.758,3.358 2.053,5.503 z"
   inkscape:export-filename="../../tree-icon.png"
   inkscape:export-xdpi="96"
   inkscape:export-ydpi="96" />


















































































<metadata
   id="metadata559"><rdf:RDF><cc:Work
       rdf:about=""><dc:title>Artboard 1</dc:title></cc:Work></rdf:RDF></metadata></svg>
