<?xml version="1.0" encoding="UTF-8" standalone="no"?>
<svg
   width="18.62326"
   height="15.47563"
   viewBox="0 0 18.62326 15.47563"
   fill="none"
   version="1.1"
   id="svg548"
   sodipodi:docname="Twitter.svg"
   xmlns:inkscape="http://www.inkscape.org/namespaces/inkscape"
   xmlns:sodipodi="http://sodipodi.sourceforge.net/DTD/sodipodi-0.dtd"
   xmlns="http://www.w3.org/2000/svg"
   xmlns:svg="http://www.w3.org/2000/svg">
  <defs
     id="defs552" />
  <sodipodi:namedview
     id="namedview550"
     pagecolor="#ffffff"
     bordercolor="#999999"
     borderopacity="1"
     inkscape:showpageshadow="0"
     inkscape:pageopacity="0"
     inkscape:pagecheckerboard="0"
     inkscape:deskcolor="#d1d1d1"
     showgrid="false" />
  <path
     fill-rule="evenodd"
     clip-rule="evenodd"
     d="m 11.271355,0.27953851 c 0.8138,-0.31062 1.7034,-0.36381 2.5485,-0.15237 0.672,0.16815 1.29,0.49718 1.8024,0.95542999 0.6302,-0.23163999 1.228,-0.54513999 1.7777,-0.93291999 0.2644,-0.18644 0.6166,-0.18937 0.884,-0.00736 0.2673,0.18201 0.3938,0.51079 0.3172,0.82505 -0.2658,1.09141999 -0.7985,2.09739999 -1.5478,2.92876999 0.0115,0.12525 0.0175,0.251 0.0179,0.3769 l 10e-5,0.00257 c -10e-5,4.73333 -2.279,8.2058305 -5.5522,9.9480305 -3.2543004,1.7322 -7.4135504,1.713 -11.11995043,-0.3461 -0.31412,-0.1745 -0.46733,-0.5419 -0.3703,-0.8879 0.09703,-0.346 0.41892,-0.5801 0.77798,-0.5658 1.30891003,0.0521 2.60462003,-0.2082 3.78282003,-0.751 -1.16639,-0.7197 -2.00611,-1.5742 -2.58992,-2.4960005 -0.77879,-1.2297 -1.07278003,-2.5323 -1.12595003,-3.70205 -0.05301,-1.16637 0.13226003,-2.21655 0.32703003,-2.96965 0.09785,-0.37835 0.19938,-0.68662 0.27764,-0.90309 0.03918,-0.10836 0.07266,-0.19409 0.09712,-0.25448 0.01224,-0.03021 0.02224,-0.05411 0.02958,-0.07138 l 0.00898,-0.0209 0.0029,-0.00664 0.00104,-0.00236 4.2e-4,-9.3e-4 c 1.8e-4,-4e-4 3.4e-4,-7.8e-4 0.70943,0.31437 l -0.70909,-0.31515 c 0.11354,-0.25544999 0.3557,-0.43008999 0.63393,-0.45715999 0.27823,-0.02708 0.54952,0.09759 0.71017,0.32635999 0.71043,1.01161 1.66001,1.83182 2.76418,2.38758 0.87828,0.44207 1.83269,0.7059 2.80829,0.77923 -0.0057,-0.86106 0.2501,-1.70383 0.734,-2.41663 0.4893,-0.72072 1.1881004,-1.27379999 2.0019004,-1.58441999 z M 2.6419646,3.1454985 c -0.14254,0.62183 -0.25636,1.41041 -0.2178,2.25882 0.04383,0.96412 0.28331,1.98942 0.88672,2.94212 0.60028,0.9478 1.59022,1.8709005 3.21206,2.5917005 0.25747,0.1145 0.43268,0.3595 0.45774,0.6401 0.02506,0.2806 -0.10397,0.5528 -0.33708,0.7111 -0.86205,0.5851 -1.80601,1.0253 -2.79466,1.31 2.45993,0.6267 4.92501,0.3274 6.9410104,-0.7456 2.7402,-1.4585 4.729,-4.3872005 4.7294,-8.5766805 -6e-4,-0.16774 -0.0168,-0.33506 -0.0483,-0.49981 -0.0486,-0.25441 0.0329,-0.51631 0.2173,-0.69818 0.1729,-0.17047 0.333,-0.35216 0.4795,-0.54356 -0.1758,0.06483 -0.3536,0.12437 -0.5334,0.17849 -0.2922,0.08801 -0.6089,-0.00349 -0.8092,-0.23379 -0.363,-0.4174 -0.8455,-0.71325 -1.3821,-0.84752 -0.5367,-0.13428 -1.1016,-0.1005 -1.6184,0.09676 -0.5168,0.19725 -0.9606,0.54848 -1.2713,1.00616 -0.3107,0.45768 -0.4733,0.99975 -0.4659,1.55288 l 10e-5,0.0104 v 0 0.77596 c 0,0.42072 -0.3353004,0.76479 -0.7559004,0.77569 -1.4916,0.0387 -2.96955,-0.29211 -4.30233,-0.96294 -0.88892,-0.44743 -1.69484,-1.03685 -2.38746,-1.7421 z"
     fill="white"
     id="path546"
     style="fill:#808080" />
</svg>
