<?xml version="1.0" encoding="UTF-8" standalone="no"?>
<svg
   width="19.17378"
   height="13.91399"
   viewBox="0 0 19.17378 13.91399"
   fill="none"
   version="1.1"
   id="svg675"
   sodipodi:docname="Youtube.svg"
   xmlns:inkscape="http://www.inkscape.org/namespaces/inkscape"
   xmlns:sodipodi="http://sodipodi.sourceforge.net/DTD/sodipodi-0.dtd"
   xmlns="http://www.w3.org/2000/svg"
   xmlns:svg="http://www.w3.org/2000/svg">
  <defs
     id="defs679" />
  <sodipodi:namedview
     id="namedview677"
     pagecolor="#ffffff"
     bordercolor="#999999"
     borderopacity="1"
     inkscape:showpageshadow="0"
     inkscape:pageopacity="0"
     inkscape:pagecheckerboard="0"
     inkscape:deskcolor="#d1d1d1"
     showgrid="false" />
  <path
     fill-rule="evenodd"
     clip-rule="evenodd"
     d="m 9.586828,2.2293091e-7 c 0,0 10e-5,0 10e-5,0.74126999706909 V 1.4825402 l -0.0609,8e-5 -0.1761,6.3e-4 c -0.1527,7.2e-4 -0.3727,0.00215 -0.6411,0.00502 -0.5372,0.00575 -1.267,0.01724 -2.03892,0.04017 -0.77306,0.02298 -1.58238,0.05727 -2.2804,0.10818 -0.71418,0.05209 -1.2506,0.11787 -1.52124,0.18926 -0.25099,0.07198 -0.47877,0.20849 -0.66062,0.39595 -0.17785,0.18336 -0.30564,0.40915 -0.37132,0.65574 -0.24184,1.35037 -0.36012,2.72002 -0.35334,4.09182 l 4e-5,0.0084 c -0.00865,1.3779 0.10881,2.7537 0.351,4.1100998 0.0725,0.2346 0.20174,0.4479 0.37649,0.6208 0.18212,0.1802 0.40753,0.3106 0.65456,0.3786 0.26959,0.0717 0.80743,0.1378 1.52443,0.1901 0.69802,0.0509 1.50734,0.0852 2.2804,0.1082 0.77192,0.0229 1.50172,0.0344 2.03892,0.0402 0.2684,0.0028 0.4884,0.0043 0.6411,0.005 l 0.1761,6e-4 0.0601,10e-5 8e-4,0.7413 c 0,0.7412 -10e-5,0.7412 -10e-5,0.7412 l -0.064,-10e-5 -0.1798,-6e-4 c -0.1553,-7e-4 -0.3783,-0.0022 -0.6501,-0.0051 -0.5433,-0.0058 -1.28298,-0.0174 -2.06705,-0.0407 -0.78289,-0.0233 -1.61596,-0.0584 -2.34422,-0.1115 -0.70753,-0.0516 -1.37899,-0.124 -1.80159,-0.237 l -0.00412,-0.0011 c -0.4938,-0.1352 -0.94442,-0.3953 -1.3083,-0.7555 -0.36387998,-0.3601 -0.62872998,-0.808 -0.76894998,-1.3004 -0.0067,-0.0235 -0.01223,-0.0473 -0.01657,-0.0714 -0.26296,-1.4577998 -0.39072,-2.9366998 -0.38168000105,-4.4179998 -0.007009999,-1.4702 0.12075000105,-2.93791 0.38167000105,-4.38477 0.00293,-0.01626 0.00641,-0.03241 0.01042,-0.04843 0.12719,-0.50817 0.38623,-0.97377 0.75095998,-1.34979 0.36473,-0.37600998 0.82223,-0.64910998 1.32629,-0.79170998 l 0.01026,-0.00291 c 0.4226,-0.11302 1.09408,-0.18536 1.80161,-0.23697 0.72826,-0.05312 1.56133,-0.08818 2.34422,-0.11145 0.78407,-0.0233 1.52375,-0.03493 2.06705,-0.04074 0.2718,-0.00291 0.4948,-0.00436 0.6501,-0.005089997 L 9.522828,9.0222931e-5 Z M 16.305528,12.08809 c -0.2706,0.0714 -0.807,0.1372 -1.5212,0.1893 -0.6981,0.0509 -1.5074,0.0852 -2.2804,0.1082 -0.7719,0.0229 -1.5017,0.0344 -2.0389,0.0402 -0.2685,0.0028 -0.4885,0.0043 -0.6412,0.005 l -0.1761,6e-4 -0.06,10e-5 -8e-4,0.7413 c 0,0.7412 -10e-5,0.7412 -10e-5,0.7412 l 0.0642,-10e-5 0.1798,-6e-4 c 0.1552,-7e-4 0.3782,-0.0022 0.65,-0.0051 0.5433,-0.0058 1.283,-0.0174 2.0671,-0.0407 0.7829,-0.0233 1.616,-0.0584 2.3442,-0.1115 0.7075,-0.0516 1.379,-0.124 1.8016,-0.237 l 0.0103,-0.0029 c 0.504,-0.1426 0.9615,-0.4157 1.3263,-0.7917 0.3647,-0.376 0.6237,-0.8416 0.7509,-1.3498 0.0041,-0.016 0.0075,-0.0321 0.0105,-0.0484 0.2589,-1.4360998 0.3866,-2.8927998 0.3816,-4.3520998 0.0091,-1.4814 -0.1187,-2.96053 -0.3816,-4.41847 l -0.7295,0.13159 0.719,-0.17999 c -0.1272,-0.50817 -0.3862,-0.97377 -0.7509,-1.34978 -0.3648,-0.37600998 -0.8223,-0.64910998 -1.3263,-0.79171998 -0.0086,-0.00243 -0.0173,-0.00471 -0.026,-0.00684 -0.4167,-0.10176 -1.0828,-0.16763 -1.7906,-0.21476 -0.7269,-0.04842 -1.559,-0.0804 -2.3414,-0.10163 -0.7836,-0.02126 -1.5228,-0.03187 -2.0659,-0.03718 -0.2716,-0.00265 -0.4945,-0.00398 -0.6496,-0.004639997 L 9.650828,8.0222931e-5 9.586828,2.2293091e-7 c 0,0 10e-5,0 10e-5,0.74126999706909 V 1.4825402 l 0.0609,8e-5 0.1763,5.7e-4 c 0.1528,6.5e-4 0.373,0.00196 0.6416,0.00459 0.5374,0.00525 1.2677,0.01574 2.0401,0.0367 0.7735,0.02099 1.5838,0.05232 2.2831,0.0989 0.7072,0.04709 1.2454,0.1067 1.5242,0.17255 0.248,0.07254 0.473,0.20817 0.653,0.39374 0.1779,0.18335 0.3057,0.40915 0.3713,0.65575 0.2438,1.36061 0.3621,2.74077 0.3534,4.12297 v 0.0074 c 0.0049,1.3614 -0.1134,2.7205 -0.3534,4.0606998 -0.0656,0.2466 -0.1934,0.4723 -0.3713,0.6557 -0.1818,0.1875 -0.4096,0.324 -0.6606,0.3959 z"
     fill="white"
     id="path671"
     style="fill:#808080" />
  <path
     fill-rule="evenodd"
     clip-rule="evenodd"
     d="m 7.404998,3.7028202 c 0.22813,-0.13273 0.50973,-0.13411 0.73913,-0.00361 l 4.6237,2.62938 c 0.2317,0.1318 0.3748,0.3778 0.3748,0.6444 0,0.2666 -0.1431,0.5126 -0.3748,0.6444 l -4.6237,2.6293998 c -0.2294,0.1305 -0.511,0.1291 -0.73913,-0.0036 -0.22817,-0.1328 -0.36854,-0.3767998 -0.36854,-0.6407998 v -5.25883 c 0,-0.26396 0.14037,-0.50802 0.36854,-0.64074 z m 1.11403,1.91507 v 2.7102 l 2.3828,-1.3551 z"
     fill="white"
     id="path673"
     inkscape:export-filename="youtube-icon-grey.svg"
     inkscape:export-xdpi="96"
     inkscape:export-ydpi="96"
     style="fill:#808080" />
</svg>
